<?xml version="1.0" encoding="UTF-8" standalone="no"?>
<!-- Created with Inkscape (http://www.inkscape.org/) -->

<svg
   xmlns:dc="http://purl.org/dc/elements/1.1/"
   xmlns:cc="http://creativecommons.org/ns#"
   xmlns:rdf="http://www.w3.org/1999/02/22-rdf-syntax-ns#"
   xmlns:svg="http://www.w3.org/2000/svg"
   xmlns="http://www.w3.org/2000/svg"
   xmlns:xlink="http://www.w3.org/1999/xlink"
   xmlns:sodipodi="http://sodipodi.sourceforge.net/DTD/sodipodi-0.dtd"
   xmlns:inkscape="http://www.inkscape.org/namespaces/inkscape"
   sodipodi:docname="RED_BACK.svg"
   inkscape:version="0.92.5 (2060ec1f9f, 2020-04-08)"
   version="1.1"
   id="svg3775"
   height="311.81104"
   width="223.22835">
  <sodipodi:namedview
     id="base"
     pagecolor="#ffffff"
     bordercolor="#666666"
     borderopacity="1.0"
     inkscape:pageopacity="0.0"
     inkscape:pageshadow="2"
     inkscape:zoom="2.682738"
     inkscape:cx="111.61418"
     inkscape:cy="171.2803"
     inkscape:document-units="px"
     inkscape:current-layer="layer4"
     showgrid="false"
     inkscape:window-width="2560"
     inkscape:window-height="1367"
     inkscape:window-x="0"
     inkscape:window-y="0"
     inkscape:window-maximized="1"
     fit-margin-top="0"
     fit-margin-left="0"
     fit-margin-right="0"
     fit-margin-bottom="0"
     showguides="true"
     inkscape:guide-bbox="true">
    <sodipodi:guide
       position="-75.646461,278.23914"
       orientation="1,0"
       id="guide1911"
       inkscape:locked="false" />
  </sodipodi:namedview>
  <defs
     id="defs3777">
    <pattern
       id="pattern13024-5"
       patternTransform="translate(-254.02376,74.426221)"
       height="110.74085"
       width="108.6184"
       patternUnits="userSpaceOnUse">
      <path
         sodipodi:type="star"
         style="fill:#131f67;fill-opacity:1;stroke:none"
         id="path13016-2"
         sodipodi:sides="5"
         sodipodi:cx="-1041.3252"
         sodipodi:cy="40.315624"
         sodipodi:r1="29.189907"
         sodipodi:r2="14.594954"
         sodipodi:arg1="-0.52359878"
         sodipodi:arg2="0.10471976"
         inkscape:flatsided="false"
         inkscape:rounded="0"
         inkscape:randomized="0"
         d="m -1016.046,25.720671 -10.7642,16.120541 7.1773,18.006272 -18.6578,-5.255841 -14.9071,12.390288 -0.767,-19.36883 -16.3904,-10.348653 18.1838,-6.714754 4.7773,-18.786107 12.0052,15.218884 z"
         transform="translate(1070.3552,-11.763587)"
         inkscape:transform-center-x="1.8754004"
         inkscape:transform-center-y="-0.94286531" />
      <path
         inkscape:transform-center-x="-2.7873924"
         transform="matrix(0.8660254,0.5,-0.5,0.8660254,946.33909,568.72784)"
         d="m -1016.046,25.720671 -10.7642,16.120541 7.1773,18.006272 -18.6578,-5.255841 -14.9071,12.390288 -0.767,-19.36883 -16.3904,-10.348653 18.1838,-6.714754 4.7773,-18.786107 12.0052,15.218884 z"
         inkscape:randomized="0"
         inkscape:rounded="0"
         inkscape:flatsided="false"
         sodipodi:arg2="0.10471976"
         sodipodi:arg1="-0.52359878"
         sodipodi:r2="14.594954"
         sodipodi:r1="29.189907"
         sodipodi:cy="40.315624"
         sodipodi:cx="-1041.3252"
         sodipodi:sides="5"
         id="path13018-7"
         style="fill:#131f67;fill-opacity:1;stroke:none"
         sodipodi:type="star" />
      <path
         transform="translate(1124.6644,-11.763587)"
         sodipodi:type="star"
         style="fill:#131f67;fill-opacity:1;stroke:none"
         id="path13020-6"
         sodipodi:sides="5"
         sodipodi:cx="-1041.3252"
         sodipodi:cy="40.315624"
         sodipodi:r1="29.189907"
         sodipodi:r2="14.594954"
         sodipodi:arg1="-0.52359878"
         sodipodi:arg2="0.10471976"
         inkscape:flatsided="false"
         inkscape:rounded="0"
         inkscape:randomized="0"
         d="m -1016.046,25.720671 -10.7642,16.120541 7.1773,18.006272 -18.6578,-5.255841 -14.9071,12.390288 -0.767,-19.36883 -16.3904,-10.348653 18.1838,-6.714754 4.7773,-18.786107 12.0052,15.218884 z"
         inkscape:transform-center-x="1.8754004"
         inkscape:transform-center-y="-0.94286531" />
      <path
         inkscape:transform-center-x="-2.7873924"
         transform="matrix(0.8660254,0.5,-0.5,0.8660254,1000.6483,568.72784)"
         d="m -1016.046,25.720671 -10.7642,16.120541 7.1773,18.006272 -18.6578,-5.255841 -14.9071,12.390288 -0.767,-19.36883 -16.3904,-10.348653 18.1838,-6.714754 4.7773,-18.786107 12.0052,15.218884 z"
         inkscape:randomized="0"
         inkscape:rounded="0"
         inkscape:flatsided="false"
         sodipodi:arg2="0.10471976"
         sodipodi:arg1="-0.52359878"
         sodipodi:r2="14.594954"
         sodipodi:r1="29.189907"
         sodipodi:cy="40.315624"
         sodipodi:cx="-1041.3252"
         sodipodi:sides="5"
         id="path13022-1"
         style="fill:#131f67;fill-opacity:1;stroke:none"
         sodipodi:type="star" />
    </pattern>
    <pattern
       patternTransform="matrix(0.10623121,-0.1062312,0.10623121,0.1062312,-605.82881,365.81179)"
       id="pattern15142"
       xlink:href="#pattern13074-4"
       inkscape:collect="always" />
    <pattern
       patternTransform="matrix(0.10623121,-0.1062312,0.10623121,0.1062312,-605.82881,365.81179)"
       id="pattern13074-4"
       xlink:href="#pattern13064-2"
       inkscape:collect="always" />
    <pattern
       patternTransform="matrix(0.10623121,-0.1062312,0.10623121,0.1062312,-836.82881,38.811786)"
       id="pattern13064-2"
       xlink:href="#pattern8526-950-188-3"
       inkscape:collect="always" />
    <pattern
       patternTransform="matrix(0.10623121,-0.1062312,0.10623121,0.1062312,13.113538,22.901883)"
       id="pattern8526-950-188-3"
       xlink:href="#pattern8519-687-26-2"
       inkscape:collect="always" />
    <pattern
       patternTransform="matrix(0.10623121,-0.1062312,0.10623121,0.1062312,-23.656015,100.68363)"
       id="pattern8519-687-26-2"
       xlink:href="#pattern8507-266-27-2"
       inkscape:collect="always" />
    <pattern
       patternTransform="matrix(0.10623119,-0.10623119,0.10623119,0.10623119,194.54709,-74.729113)"
       id="pattern8507-266-27-2"
       xlink:href="#pattern8501-248-271-1"
       inkscape:collect="always" />
    <pattern
       patternTransform="matrix(0.0652057,-0.0652057,0.0652057,0.0652057,194.54709,-74.729113)"
       id="pattern8501-248-271-1"
       xlink:href="#pattern8475-545-163-6"
       inkscape:collect="always" />
    <pattern
       patternTransform="matrix(0.11006325,-0.11006325,0.11006325,0.11006325,-254.02376,74.426221)"
       id="pattern8475-545-163-6"
       xlink:href="#pattern8463-7-486-8"
       inkscape:collect="always" />
    <pattern
       id="pattern8463-7-486-8"
       patternTransform="translate(-254.02376,74.426221)"
       height="110.74085"
       width="108.6184"
       patternUnits="userSpaceOnUse">
      <path
         sodipodi:type="star"
         style="fill:#d40000;fill-opacity:1;stroke:none"
         id="path11396-5"
         sodipodi:sides="5"
         sodipodi:cx="-1041.3252"
         sodipodi:cy="40.315624"
         sodipodi:r1="29.189907"
         sodipodi:r2="14.594954"
         sodipodi:arg1="-0.52359878"
         sodipodi:arg2="0.10471976"
         inkscape:flatsided="false"
         inkscape:rounded="0"
         inkscape:randomized="0"
         d="m -1016.046,25.720671 -10.7642,16.120541 7.1773,18.006272 -18.6578,-5.255841 -14.9071,12.390288 -0.767,-19.36883 -16.3904,-10.348653 18.1838,-6.714754 4.7773,-18.786107 12.0052,15.218884 z"
         transform="translate(1070.3552,-11.763587)"
         inkscape:transform-center-x="1.8754004"
         inkscape:transform-center-y="-0.94286531" />
      <path
         inkscape:transform-center-x="-2.7873924"
         transform="matrix(0.8660254,0.5,-0.5,0.8660254,946.33909,568.72784)"
         d="m -1016.046,25.720671 -10.7642,16.120541 7.1773,18.006272 -18.6578,-5.255841 -14.9071,12.390288 -0.767,-19.36883 -16.3904,-10.348653 18.1838,-6.714754 4.7773,-18.786107 12.0052,15.218884 z"
         inkscape:randomized="0"
         inkscape:rounded="0"
         inkscape:flatsided="false"
         sodipodi:arg2="0.10471976"
         sodipodi:arg1="-0.52359878"
         sodipodi:r2="14.594954"
         sodipodi:r1="29.189907"
         sodipodi:cy="40.315624"
         sodipodi:cx="-1041.3252"
         sodipodi:sides="5"
         id="path11398-7"
         style="fill:#d40000;fill-opacity:1;stroke:none"
         sodipodi:type="star" />
      <path
         transform="translate(1124.6644,-11.763587)"
         sodipodi:type="star"
         style="fill:#d40000;fill-opacity:1;stroke:none"
         id="path11400-6"
         sodipodi:sides="5"
         sodipodi:cx="-1041.3252"
         sodipodi:cy="40.315624"
         sodipodi:r1="29.189907"
         sodipodi:r2="14.594954"
         sodipodi:arg1="-0.52359878"
         sodipodi:arg2="0.10471976"
         inkscape:flatsided="false"
         inkscape:rounded="0"
         inkscape:randomized="0"
         d="m -1016.046,25.720671 -10.7642,16.120541 7.1773,18.006272 -18.6578,-5.255841 -14.9071,12.390288 -0.767,-19.36883 -16.3904,-10.348653 18.1838,-6.714754 4.7773,-18.786107 12.0052,15.218884 z"
         inkscape:transform-center-x="1.8754004"
         inkscape:transform-center-y="-0.94286531" />
      <path
         inkscape:transform-center-x="-2.7873924"
         transform="matrix(0.8660254,0.5,-0.5,0.8660254,1000.6483,568.72784)"
         d="m -1016.046,25.720671 -10.7642,16.120541 7.1773,18.006272 -18.6578,-5.255841 -14.9071,12.390288 -0.767,-19.36883 -16.3904,-10.348653 18.1838,-6.714754 4.7773,-18.786107 12.0052,15.218884 z"
         inkscape:randomized="0"
         inkscape:rounded="0"
         inkscape:flatsided="false"
         sodipodi:arg2="0.10471976"
         sodipodi:arg1="-0.52359878"
         sodipodi:r2="14.594954"
         sodipodi:r1="29.189907"
         sodipodi:cy="40.315624"
         sodipodi:cx="-1041.3252"
         sodipodi:sides="5"
         id="path11402-1"
         style="fill:#d40000;fill-opacity:1;stroke:none"
         sodipodi:type="star" />
    </pattern>
    <clipPath
       clipPathUnits="userSpaceOnUse"
       id="clipPath6949">
      <rect
         style="opacity:1;fill:#030320;fill-opacity:0.77669899;stroke:none;stroke-width:6.19102716;stroke-linecap:round;stroke-linejoin:round;stroke-miterlimit:4;stroke-dasharray:none;stroke-opacity:0.97087378;paint-order:markers stroke fill"
         id="rect6951"
         width="205.77499"
         height="297.84354"
         x="8.5653849"
         y="7.8334813" />
    </clipPath>
  </defs>
  <metadata
     id="metadata3780">
    <rdf:RDF>
      <cc:Work
         rdf:about="">
        <dc:format>image/svg+xml</dc:format>
        <dc:type
           rdf:resource="http://purl.org/dc/dcmitype/StillImage" />
        <dc:title></dc:title>
      </cc:Work>
    </rdf:RDF>
  </metadata>
  <g
     id="layer1"
     inkscape:groupmode="layer"
     inkscape:label="BLUE_BACK"
     style="display:inline"
     transform="translate(-260.43307,-370.27557)">
    <rect
       rx="10.629921"
       ry="10.629921"
       y="370.77557"
       x="260.93307"
       height="310.81104"
       width="222.22835"
       id="rect13537"
       style="fill:#ffffff;stroke:#000000;stroke-width:1;stroke-opacity:1" />
    <rect
       ry="0"
       y="382.85901"
       x="273.52118"
       height="286.64417"
       width="197.05205"
       id="rect13539"
       style="fill:#860c0c;fill-opacity:1;stroke:none;stroke-width:4.95238304;stroke-linecap:round;stroke-linejoin:miter;stroke-miterlimit:4;stroke-dasharray:none;stroke-opacity:1" />
  </g>
  <g
     inkscape:groupmode="layer"
     id="layer3"
     inkscape:label="suits"
     style="display:inline;opacity:0.12999998">
    <g
       id="g6929"
       transform="matrix(1.0107956,0,0,1.0024578,-1.202783,-0.95406502)"
       clip-path="url(#clipPath6949)">
      <g
         style="fill:#ffffff;fill-opacity:1"
         id="g6742">
        <path
           inkscape:connector-curvature="0"
           id="path2275"
           d="M 78.857869,45.188488 46.306226,76.950736 78.857869,108.7103 111.41224,76.950736 Z m 0.205999,7.337583 c 6.528037,11.07304 17.303829,19.769697 17.941713,28.329288 0.848018,11.380023 -13.911504,15.624559 -16.01899,2.360997 -0.135992,-0.936933 -1.268863,-1.356834 -1.181094,-0.04824 0.320222,3.634985 -0.135148,5.149197 4.067913,14.109706 H 72.886444 c 2.433277,-4.186931 3.883078,-9.327422 4.048702,-13.745239 0.01125,-1.526845 -1.225379,-1.556695 -1.211316,-0.442183 -0.103787,5.599272 -4.955997,8.356067 -8.481938,7.70205 -5.435669,-1.008228 -7.171405,-6.271235 -7.119554,-9.371632 0.160055,-9.56974 10.032278,-16.626724 18.94153,-28.89475 z"
           style="fill:#ffffff;fill-opacity:1;stroke:none;stroke-width:0.46627611;stroke-linecap:round;stroke-linejoin:round;stroke-miterlimit:4;stroke-dasharray:none" />
        <path
           inkscape:connector-curvature="0"
           id="path2277"
           d="m 143.96388,45.188488 -32.55164,31.762248 32.55164,31.759564 32.55439,-31.759564 z m 7.19371,16.26435 c 0.22758,-3.88e-4 0.45492,0.01317 0.6812,0.04288 5.89153,0.07478 9.47221,6.471731 8.46546,11.885386 -1.2299,6.613428 -4.87945,10.595293 -7.64419,14.696605 -3.12779,4.246508 -7.33974,10.380229 -8.69618,13.332531 0,0 -4.27758,-6.353935 -9.84432,-13.825634 -3.72239,-4.996189 -6.70217,-10.408021 -6.97947,-15.069113 -0.31687,-5.3254 1.92353,-10.100542 8.12761,-10.925977 5.05392,-0.327441 7.68762,3.884284 8.20177,7.203588 0.30661,0.527262 0.47571,0.378435 0.59329,-0.02947 0.23167,-3.995174 3.68133,-7.304962 7.09483,-7.310784 z"
           style="display:inline;fill:#ffffff;fill-opacity:1;stroke:none;stroke-width:0.46627611;stroke-linecap:round;stroke-linejoin:round;stroke-miterlimit:4;stroke-dasharray:none" />
        <path
           style="fill:#ffffff;fill-opacity:1;stroke-width:0.25863227"
           d="m 91.817105,108.7104 c 8.628145,-8.21521 14.294705,-17.172409 19.713885,-25.786542 4.75239,9.47833 11.57231,17.770582 18.94772,25.786542 -7.89107,7.94969 -14.00684,16.45026 -18.92412,25.38672 -5.45101,-9.16066 -11.18974,-17.45604 -19.737485,-25.38672 z"
           id="path2279"
           inkscape:connector-curvature="0"
           sodipodi:nodetypes="ccccc" />
        <path
           sodipodi:nodetypes="cccscccccscscc"
           inkscape:connector-curvature="0"
           id="path2283"
           d="m 105.86255,64.810895 c 2.17275,-4.25271 3.75525,-8.615765 4.03616,-13.281385 0.2578,-1.716883 -0.81099,-1.74567 -0.97212,-0.536482 -3.07642,11.481394 -19.442871,8.372353 -18.880169,-2.427308 0.456579,-8.758451 9.372877,-10.642704 14.023879,-7.778942 1.83662,1.05499 1.73284,0.423091 0.73047,-0.67136 -6.909043,-7.518968 -2.7245,-17.201894 6.61201,-17.379116 10.09744,0.584218 12.71744,10.949097 6.52369,17.044746 -0.77024,0.732365 -2.47803,3.086195 0.0928,1.44047 6.25397,-4.335489 14.93328,0.326083 14.75624,7.010395 -0.32656,12.325298 -15.72709,13.244531 -19.02064,2.949561 -0.31681,-1.141433 -1.22945,-1.71466 -0.97731,0.224038 0.45651,3.509794 1.40108,8.801632 4.10355,13.405383 z"
           style="display:inline;fill:#ffffff;fill-opacity:1;stroke-width:0.74545258" />
      </g>
      <g
         transform="translate(-65.106011,63.521812)"
         id="g6752"
         style="fill:#ffffff;fill-opacity:1">
        <path
           style="fill:#ffffff;fill-opacity:1;stroke:none;stroke-width:0.46627611;stroke-linecap:round;stroke-linejoin:round;stroke-miterlimit:4;stroke-dasharray:none"
           d="M 78.857869,45.188488 46.306226,76.950736 78.857869,108.7103 111.41224,76.950736 Z m 0.205999,7.337583 c 6.528037,11.07304 17.303829,19.769697 17.941713,28.329288 0.848018,11.380023 -13.911504,15.624559 -16.01899,2.360997 -0.135992,-0.936933 -1.268863,-1.356834 -1.181094,-0.04824 0.320222,3.634985 -0.135148,5.149197 4.067913,14.109706 H 72.886444 c 2.433277,-4.186931 3.883078,-9.327422 4.048702,-13.745239 0.01125,-1.526845 -1.225379,-1.556695 -1.211316,-0.442183 -0.103787,5.599272 -4.955997,8.356067 -8.481938,7.70205 -5.435669,-1.008228 -7.171405,-6.271235 -7.119554,-9.371632 0.160055,-9.56974 10.032278,-16.626724 18.94153,-28.89475 z"
           id="path6744"
           inkscape:connector-curvature="0" />
        <path
           style="display:inline;fill:#ffffff;fill-opacity:1;stroke:none;stroke-width:0.46627611;stroke-linecap:round;stroke-linejoin:round;stroke-miterlimit:4;stroke-dasharray:none"
           d="m 143.96388,45.188488 -32.55164,31.762248 32.55164,31.759564 32.55439,-31.759564 z m 7.19371,16.26435 c 0.22758,-3.88e-4 0.45492,0.01317 0.6812,0.04288 5.89153,0.07478 9.47221,6.471731 8.46546,11.885386 -1.2299,6.613428 -4.87945,10.595293 -7.64419,14.696605 -3.12779,4.246508 -7.33974,10.380229 -8.69618,13.332531 0,0 -4.27758,-6.353935 -9.84432,-13.825634 -3.72239,-4.996189 -6.70217,-10.408021 -6.97947,-15.069113 -0.31687,-5.3254 1.92353,-10.100542 8.12761,-10.925977 5.05392,-0.327441 7.68762,3.884284 8.20177,7.203588 0.30661,0.527262 0.47571,0.378435 0.59329,-0.02947 0.23167,-3.995174 3.68133,-7.304962 7.09483,-7.310784 z"
           id="path6746"
           inkscape:connector-curvature="0" />
        <path
           sodipodi:nodetypes="ccccc"
           inkscape:connector-curvature="0"
           id="path6748"
           d="m 91.817105,108.7104 c 8.628145,-8.21521 14.294705,-17.172409 19.713885,-25.786542 4.75239,9.47833 11.57231,17.770582 18.94772,25.786542 -7.89107,7.94969 -14.00684,16.45026 -18.92412,25.38672 -5.45101,-9.16066 -11.18974,-17.45604 -19.737485,-25.38672 z"
           style="fill:#ffffff;fill-opacity:1;stroke-width:0.25863227" />
        <path
           style="display:inline;fill:#ffffff;fill-opacity:1;stroke-width:0.74545258"
           d="m 105.86255,64.810895 c 2.17275,-4.25271 3.75525,-8.615765 4.03616,-13.281385 0.2578,-1.716883 -0.81099,-1.74567 -0.97212,-0.536482 -3.07642,11.481394 -19.442871,8.372353 -18.880169,-2.427308 0.456579,-8.758451 9.372877,-10.642704 14.023879,-7.778942 1.83662,1.05499 1.73284,0.423091 0.73047,-0.67136 -6.909043,-7.518968 -2.7245,-17.201894 6.61201,-17.379116 10.09744,0.584218 12.71744,10.949097 6.52369,17.044746 -0.77024,0.732365 -2.47803,3.086195 0.0928,1.44047 6.25397,-4.335489 14.93328,0.326083 14.75624,7.010395 -0.32656,12.325298 -15.72709,13.244531 -19.02064,2.949561 -0.31681,-1.141433 -1.22945,-1.71466 -0.97731,0.224038 0.45651,3.509794 1.40108,8.801632 4.10355,13.405383 z"
           id="path6750"
           inkscape:connector-curvature="0"
           sodipodi:nodetypes="cccscccccscscc" />
      </g>
      <g
         style="fill:#ffffff;fill-opacity:1"
         id="g6762"
         transform="translate(65.106011,63.521812)">
        <path
           inkscape:connector-curvature="0"
           id="path6754"
           d="M 78.857869,45.188488 46.306226,76.950736 78.857869,108.7103 111.41224,76.950736 Z m 0.205999,7.337583 c 6.528037,11.07304 17.303829,19.769697 17.941713,28.329288 0.848018,11.380023 -13.911504,15.624559 -16.01899,2.360997 -0.135992,-0.936933 -1.268863,-1.356834 -1.181094,-0.04824 0.320222,3.634985 -0.135148,5.149197 4.067913,14.109706 H 72.886444 c 2.433277,-4.186931 3.883078,-9.327422 4.048702,-13.745239 0.01125,-1.526845 -1.225379,-1.556695 -1.211316,-0.442183 -0.103787,5.599272 -4.955997,8.356067 -8.481938,7.70205 -5.435669,-1.008228 -7.171405,-6.271235 -7.119554,-9.371632 0.160055,-9.56974 10.032278,-16.626724 18.94153,-28.89475 z"
           style="fill:#ffffff;fill-opacity:1;stroke:none;stroke-width:0.46627611;stroke-linecap:round;stroke-linejoin:round;stroke-miterlimit:4;stroke-dasharray:none" />
        <path
           inkscape:connector-curvature="0"
           id="path6756"
           d="m 143.96388,45.188488 -32.55164,31.762248 32.55164,31.759564 32.55439,-31.759564 z m 7.19371,16.26435 c 0.22758,-3.88e-4 0.45492,0.01317 0.6812,0.04288 5.89153,0.07478 9.47221,6.471731 8.46546,11.885386 -1.2299,6.613428 -4.87945,10.595293 -7.64419,14.696605 -3.12779,4.246508 -7.33974,10.380229 -8.69618,13.332531 0,0 -4.27758,-6.353935 -9.84432,-13.825634 -3.72239,-4.996189 -6.70217,-10.408021 -6.97947,-15.069113 -0.31687,-5.3254 1.92353,-10.100542 8.12761,-10.925977 5.05392,-0.327441 7.68762,3.884284 8.20177,7.203588 0.30661,0.527262 0.47571,0.378435 0.59329,-0.02947 0.23167,-3.995174 3.68133,-7.304962 7.09483,-7.310784 z"
           style="display:inline;fill:#ffffff;fill-opacity:1;stroke:none;stroke-width:0.46627611;stroke-linecap:round;stroke-linejoin:round;stroke-miterlimit:4;stroke-dasharray:none" />
        <path
           style="fill:#ffffff;fill-opacity:1;stroke-width:0.25863227"
           d="m 91.817105,108.7104 c 8.628145,-8.21521 14.294705,-17.172409 19.713885,-25.786542 4.75239,9.47833 11.57231,17.770582 18.94772,25.786542 -7.89107,7.94969 -14.00684,16.45026 -18.92412,25.38672 -5.45101,-9.16066 -11.18974,-17.45604 -19.737485,-25.38672 z"
           id="path6758"
           inkscape:connector-curvature="0"
           sodipodi:nodetypes="ccccc" />
        <path
           sodipodi:nodetypes="cccscccccscscc"
           inkscape:connector-curvature="0"
           id="path6760"
           d="m 105.86255,64.810895 c 2.17275,-4.25271 3.75525,-8.615765 4.03616,-13.281385 0.2578,-1.716883 -0.81099,-1.74567 -0.97212,-0.536482 -3.07642,11.481394 -19.442871,8.372353 -18.880169,-2.427308 0.456579,-8.758451 9.372877,-10.642704 14.023879,-7.778942 1.83662,1.05499 1.73284,0.423091 0.73047,-0.67136 -6.909043,-7.518968 -2.7245,-17.201894 6.61201,-17.379116 10.09744,0.584218 12.71744,10.949097 6.52369,17.044746 -0.77024,0.732365 -2.47803,3.086195 0.0928,1.44047 6.25397,-4.335489 14.93328,0.326083 14.75624,7.010395 -0.32656,12.325298 -15.72709,13.244531 -19.02064,2.949561 -0.31681,-1.141433 -1.22945,-1.71466 -0.97731,0.224038 0.45651,3.509794 1.40108,8.801632 4.10355,13.405383 z"
           style="display:inline;fill:#ffffff;fill-opacity:1;stroke-width:0.74545258" />
      </g>
      <g
         transform="translate(0,127.04362)"
         id="g6772"
         style="fill:#ffffff;fill-opacity:1">
        <path
           style="fill:#ffffff;fill-opacity:1;stroke:none;stroke-width:0.46627611;stroke-linecap:round;stroke-linejoin:round;stroke-miterlimit:4;stroke-dasharray:none"
           d="M 78.857869,45.188488 46.306226,76.950736 78.857869,108.7103 111.41224,76.950736 Z m 0.205999,7.337583 c 6.528037,11.07304 17.303829,19.769697 17.941713,28.329288 0.848018,11.380023 -13.911504,15.624559 -16.01899,2.360997 -0.135992,-0.936933 -1.268863,-1.356834 -1.181094,-0.04824 0.320222,3.634985 -0.135148,5.149197 4.067913,14.109706 H 72.886444 c 2.433277,-4.186931 3.883078,-9.327422 4.048702,-13.745239 0.01125,-1.526845 -1.225379,-1.556695 -1.211316,-0.442183 -0.103787,5.599272 -4.955997,8.356067 -8.481938,7.70205 -5.435669,-1.008228 -7.171405,-6.271235 -7.119554,-9.371632 0.160055,-9.56974 10.032278,-16.626724 18.94153,-28.89475 z"
           id="path6764"
           inkscape:connector-curvature="0" />
        <path
           style="display:inline;fill:#ffffff;fill-opacity:1;stroke:none;stroke-width:0.46627611;stroke-linecap:round;stroke-linejoin:round;stroke-miterlimit:4;stroke-dasharray:none"
           d="m 143.96388,45.188488 -32.55164,31.762248 32.55164,31.759564 32.55439,-31.759564 z m 7.19371,16.26435 c 0.22758,-3.88e-4 0.45492,0.01317 0.6812,0.04288 5.89153,0.07478 9.47221,6.471731 8.46546,11.885386 -1.2299,6.613428 -4.87945,10.595293 -7.64419,14.696605 -3.12779,4.246508 -7.33974,10.380229 -8.69618,13.332531 0,0 -4.27758,-6.353935 -9.84432,-13.825634 -3.72239,-4.996189 -6.70217,-10.408021 -6.97947,-15.069113 -0.31687,-5.3254 1.92353,-10.100542 8.12761,-10.925977 5.05392,-0.327441 7.68762,3.884284 8.20177,7.203588 0.30661,0.527262 0.47571,0.378435 0.59329,-0.02947 0.23167,-3.995174 3.68133,-7.304962 7.09483,-7.310784 z"
           id="path6766"
           inkscape:connector-curvature="0" />
        <path
           sodipodi:nodetypes="ccccc"
           inkscape:connector-curvature="0"
           id="path6768"
           d="m 91.817105,108.7104 c 8.628145,-8.21521 14.294705,-17.172409 19.713885,-25.786542 4.75239,9.47833 11.57231,17.770582 18.94772,25.786542 -7.89107,7.94969 -14.00684,16.45026 -18.92412,25.38672 -5.45101,-9.16066 -11.18974,-17.45604 -19.737485,-25.38672 z"
           style="fill:#ffffff;fill-opacity:1;stroke-width:0.25863227" />
        <path
           style="display:inline;fill:#ffffff;fill-opacity:1;stroke-width:0.74545258"
           d="m 105.86255,64.810895 c 2.17275,-4.25271 3.75525,-8.615765 4.03616,-13.281385 0.2578,-1.716883 -0.81099,-1.74567 -0.97212,-0.536482 -3.07642,11.481394 -19.442871,8.372353 -18.880169,-2.427308 0.456579,-8.758451 9.372877,-10.642704 14.023879,-7.778942 1.83662,1.05499 1.73284,0.423091 0.73047,-0.67136 -6.909043,-7.518968 -2.7245,-17.201894 6.61201,-17.379116 10.09744,0.584218 12.71744,10.949097 6.52369,17.044746 -0.77024,0.732365 -2.47803,3.086195 0.0928,1.44047 6.25397,-4.335489 14.93328,0.326083 14.75624,7.010395 -0.32656,12.325298 -15.72709,13.244531 -19.02064,2.949561 -0.31681,-1.141433 -1.22945,-1.71466 -0.97731,0.224038 0.45651,3.509794 1.40108,8.801632 4.10355,13.405383 z"
           id="path6770"
           inkscape:connector-curvature="0"
           sodipodi:nodetypes="cccscccccscscc" />
      </g>
      <g
         style="fill:#ffffff;fill-opacity:1"
         id="g6782"
         transform="translate(-130.21202,127.04362)">
        <path
           inkscape:connector-curvature="0"
           id="path6774"
           d="M 78.857869,45.188488 46.306226,76.950736 78.857869,108.7103 111.41224,76.950736 Z m 0.205999,7.337583 c 6.528037,11.07304 17.303829,19.769697 17.941713,28.329288 0.848018,11.380023 -13.911504,15.624559 -16.01899,2.360997 -0.135992,-0.936933 -1.268863,-1.356834 -1.181094,-0.04824 0.320222,3.634985 -0.135148,5.149197 4.067913,14.109706 H 72.886444 c 2.433277,-4.186931 3.883078,-9.327422 4.048702,-13.745239 0.01125,-1.526845 -1.225379,-1.556695 -1.211316,-0.442183 -0.103787,5.599272 -4.955997,8.356067 -8.481938,7.70205 -5.435669,-1.008228 -7.171405,-6.271235 -7.119554,-9.371632 0.160055,-9.56974 10.032278,-16.626724 18.94153,-28.89475 z"
           style="fill:#ffffff;fill-opacity:1;stroke:none;stroke-width:0.46627611;stroke-linecap:round;stroke-linejoin:round;stroke-miterlimit:4;stroke-dasharray:none" />
        <path
           inkscape:connector-curvature="0"
           id="path6776"
           d="m 143.96388,45.188488 -32.55164,31.762248 32.55164,31.759564 32.55439,-31.759564 z m 7.19371,16.26435 c 0.22758,-3.88e-4 0.45492,0.01317 0.6812,0.04288 5.89153,0.07478 9.47221,6.471731 8.46546,11.885386 -1.2299,6.613428 -4.87945,10.595293 -7.64419,14.696605 -3.12779,4.246508 -7.33974,10.380229 -8.69618,13.332531 0,0 -4.27758,-6.353935 -9.84432,-13.825634 -3.72239,-4.996189 -6.70217,-10.408021 -6.97947,-15.069113 -0.31687,-5.3254 1.92353,-10.100542 8.12761,-10.925977 5.05392,-0.327441 7.68762,3.884284 8.20177,7.203588 0.30661,0.527262 0.47571,0.378435 0.59329,-0.02947 0.23167,-3.995174 3.68133,-7.304962 7.09483,-7.310784 z"
           style="display:inline;fill:#ffffff;fill-opacity:1;stroke:none;stroke-width:0.46627611;stroke-linecap:round;stroke-linejoin:round;stroke-miterlimit:4;stroke-dasharray:none" />
        <path
           style="fill:#ffffff;fill-opacity:1;stroke-width:0.25863227"
           d="m 91.817105,108.7104 c 8.628145,-8.21521 14.294705,-17.172409 19.713885,-25.786542 4.75239,9.47833 11.57231,17.770582 18.94772,25.786542 -7.89107,7.94969 -14.00684,16.45026 -18.92412,25.38672 -5.45101,-9.16066 -11.18974,-17.45604 -19.737485,-25.38672 z"
           id="path6778"
           inkscape:connector-curvature="0"
           sodipodi:nodetypes="ccccc" />
        <path
           sodipodi:nodetypes="cccscccccscscc"
           inkscape:connector-curvature="0"
           id="path6780"
           d="m 105.86255,64.810895 c 2.17275,-4.25271 3.75525,-8.615765 4.03616,-13.281385 0.2578,-1.716883 -0.81099,-1.74567 -0.97212,-0.536482 -3.07642,11.481394 -19.442871,8.372353 -18.880169,-2.427308 0.456579,-8.758451 9.372877,-10.642704 14.023879,-7.778942 1.83662,1.05499 1.73284,0.423091 0.73047,-0.67136 -6.909043,-7.518968 -2.7245,-17.201894 6.61201,-17.379116 10.09744,0.584218 12.71744,10.949097 6.52369,17.044746 -0.77024,0.732365 -2.47803,3.086195 0.0928,1.44047 6.25397,-4.335489 14.93328,0.326083 14.75624,7.010395 -0.32656,12.325298 -15.72709,13.244531 -19.02064,2.949561 -0.31681,-1.141433 -1.22945,-1.71466 -0.97731,0.224038 0.45651,3.509794 1.40108,8.801632 4.10355,13.405383 z"
           style="display:inline;fill:#ffffff;fill-opacity:1;stroke-width:0.74545258" />
      </g>
      <g
         transform="translate(-65.106011,190.56543)"
         id="g6792"
         style="fill:#ffffff;fill-opacity:1">
        <path
           style="fill:#ffffff;fill-opacity:1;stroke:none;stroke-width:0.46627611;stroke-linecap:round;stroke-linejoin:round;stroke-miterlimit:4;stroke-dasharray:none"
           d="M 78.857869,45.188488 46.306226,76.950736 78.857869,108.7103 111.41224,76.950736 Z m 0.205999,7.337583 c 6.528037,11.07304 17.303829,19.769697 17.941713,28.329288 0.848018,11.380023 -13.911504,15.624559 -16.01899,2.360997 -0.135992,-0.936933 -1.268863,-1.356834 -1.181094,-0.04824 0.320222,3.634985 -0.135148,5.149197 4.067913,14.109706 H 72.886444 c 2.433277,-4.186931 3.883078,-9.327422 4.048702,-13.745239 0.01125,-1.526845 -1.225379,-1.556695 -1.211316,-0.442183 -0.103787,5.599272 -4.955997,8.356067 -8.481938,7.70205 -5.435669,-1.008228 -7.171405,-6.271235 -7.119554,-9.371632 0.160055,-9.56974 10.032278,-16.626724 18.94153,-28.89475 z"
           id="path6784"
           inkscape:connector-curvature="0" />
        <path
           style="display:inline;fill:#ffffff;fill-opacity:1;stroke:none;stroke-width:0.46627611;stroke-linecap:round;stroke-linejoin:round;stroke-miterlimit:4;stroke-dasharray:none"
           d="m 143.96388,45.188488 -32.55164,31.762248 32.55164,31.759564 32.55439,-31.759564 z m 7.19371,16.26435 c 0.22758,-3.88e-4 0.45492,0.01317 0.6812,0.04288 5.89153,0.07478 9.47221,6.471731 8.46546,11.885386 -1.2299,6.613428 -4.87945,10.595293 -7.64419,14.696605 -3.12779,4.246508 -7.33974,10.380229 -8.69618,13.332531 0,0 -4.27758,-6.353935 -9.84432,-13.825634 -3.72239,-4.996189 -6.70217,-10.408021 -6.97947,-15.069113 -0.31687,-5.3254 1.92353,-10.100542 8.12761,-10.925977 5.05392,-0.327441 7.68762,3.884284 8.20177,7.203588 0.30661,0.527262 0.47571,0.378435 0.59329,-0.02947 0.23167,-3.995174 3.68133,-7.304962 7.09483,-7.310784 z"
           id="path6786"
           inkscape:connector-curvature="0" />
        <path
           sodipodi:nodetypes="ccccc"
           inkscape:connector-curvature="0"
           id="path6788"
           d="m 91.817105,108.7104 c 8.628145,-8.21521 14.294705,-17.172409 19.713885,-25.786542 4.75239,9.47833 11.57231,17.770582 18.94772,25.786542 -7.89107,7.94969 -14.00684,16.45026 -18.92412,25.38672 -5.45101,-9.16066 -11.18974,-17.45604 -19.737485,-25.38672 z"
           style="fill:#ffffff;fill-opacity:1;stroke-width:0.25863227" />
        <path
           style="display:inline;fill:#ffffff;fill-opacity:1;stroke-width:0.74545258"
           d="m 105.86255,64.810895 c 2.17275,-4.25271 3.75525,-8.615765 4.03616,-13.281385 0.2578,-1.716883 -0.81099,-1.74567 -0.97212,-0.536482 -3.07642,11.481394 -19.442871,8.372353 -18.880169,-2.427308 0.456579,-8.758451 9.372877,-10.642704 14.023879,-7.778942 1.83662,1.05499 1.73284,0.423091 0.73047,-0.67136 -6.909043,-7.518968 -2.7245,-17.201894 6.61201,-17.379116 10.09744,0.584218 12.71744,10.949097 6.52369,17.044746 -0.77024,0.732365 -2.47803,3.086195 0.0928,1.44047 6.25397,-4.335489 14.93328,0.326083 14.75624,7.010395 -0.32656,12.325298 -15.72709,13.244531 -19.02064,2.949561 -0.31681,-1.141433 -1.22945,-1.71466 -0.97731,0.224038 0.45651,3.509794 1.40108,8.801632 4.10355,13.405383 z"
           id="path6790"
           inkscape:connector-curvature="0"
           sodipodi:nodetypes="cccscccccscscc" />
      </g>
      <g
         style="fill:#ffffff;fill-opacity:1"
         id="g6802"
         transform="translate(65.106011,190.56543)">
        <path
           inkscape:connector-curvature="0"
           id="path6794"
           d="M 78.857869,45.188488 46.306226,76.950736 78.857869,108.7103 111.41224,76.950736 Z m 0.205999,7.337583 c 6.528037,11.07304 17.303829,19.769697 17.941713,28.329288 0.848018,11.380023 -13.911504,15.624559 -16.01899,2.360997 -0.135992,-0.936933 -1.268863,-1.356834 -1.181094,-0.04824 0.320222,3.634985 -0.135148,5.149197 4.067913,14.109706 H 72.886444 c 2.433277,-4.186931 3.883078,-9.327422 4.048702,-13.745239 0.01125,-1.526845 -1.225379,-1.556695 -1.211316,-0.442183 -0.103787,5.599272 -4.955997,8.356067 -8.481938,7.70205 -5.435669,-1.008228 -7.171405,-6.271235 -7.119554,-9.371632 0.160055,-9.56974 10.032278,-16.626724 18.94153,-28.89475 z"
           style="fill:#ffffff;fill-opacity:1;stroke:none;stroke-width:0.46627611;stroke-linecap:round;stroke-linejoin:round;stroke-miterlimit:4;stroke-dasharray:none" />
        <path
           inkscape:connector-curvature="0"
           id="path6796"
           d="m 143.96388,45.188488 -32.55164,31.762248 32.55164,31.759564 32.55439,-31.759564 z m 7.19371,16.26435 c 0.22758,-3.88e-4 0.45492,0.01317 0.6812,0.04288 5.89153,0.07478 9.47221,6.471731 8.46546,11.885386 -1.2299,6.613428 -4.87945,10.595293 -7.64419,14.696605 -3.12779,4.246508 -7.33974,10.380229 -8.69618,13.332531 0,0 -4.27758,-6.353935 -9.84432,-13.825634 -3.72239,-4.996189 -6.70217,-10.408021 -6.97947,-15.069113 -0.31687,-5.3254 1.92353,-10.100542 8.12761,-10.925977 5.05392,-0.327441 7.68762,3.884284 8.20177,7.203588 0.30661,0.527262 0.47571,0.378435 0.59329,-0.02947 0.23167,-3.995174 3.68133,-7.304962 7.09483,-7.310784 z"
           style="display:inline;fill:#ffffff;fill-opacity:1;stroke:none;stroke-width:0.46627611;stroke-linecap:round;stroke-linejoin:round;stroke-miterlimit:4;stroke-dasharray:none" />
        <path
           style="fill:#ffffff;fill-opacity:1;stroke-width:0.25863227"
           d="m 91.817105,108.7104 c 8.628145,-8.21521 14.294705,-17.172409 19.713885,-25.786542 4.75239,9.47833 11.57231,17.770582 18.94772,25.786542 -7.89107,7.94969 -14.00684,16.45026 -18.92412,25.38672 -5.45101,-9.16066 -11.18974,-17.45604 -19.737485,-25.38672 z"
           id="path6798"
           inkscape:connector-curvature="0"
           sodipodi:nodetypes="ccccc" />
        <path
           sodipodi:nodetypes="cccscccccscscc"
           inkscape:connector-curvature="0"
           id="path6800"
           d="m 105.86255,64.810895 c 2.17275,-4.25271 3.75525,-8.615765 4.03616,-13.281385 0.2578,-1.716883 -0.81099,-1.74567 -0.97212,-0.536482 -3.07642,11.481394 -19.442871,8.372353 -18.880169,-2.427308 0.456579,-8.758451 9.372877,-10.642704 14.023879,-7.778942 1.83662,1.05499 1.73284,0.423091 0.73047,-0.67136 -6.909043,-7.518968 -2.7245,-17.201894 6.61201,-17.379116 10.09744,0.584218 12.71744,10.949097 6.52369,17.044746 -0.77024,0.732365 -2.47803,3.086195 0.0928,1.44047 6.25397,-4.335489 14.93328,0.326083 14.75624,7.010395 -0.32656,12.325298 -15.72709,13.244531 -19.02064,2.949561 -0.31681,-1.141433 -1.22945,-1.71466 -0.97731,0.224038 0.45651,3.509794 1.40108,8.801632 4.10355,13.405383 z"
           style="display:inline;fill:#ffffff;fill-opacity:1;stroke-width:0.74545258" />
      </g>
      <g
         transform="translate(130.21202,127.04362)"
         id="g6812"
         style="fill:#ffffff;fill-opacity:1">
        <path
           style="fill:#ffffff;fill-opacity:1;stroke:none;stroke-width:0.46627611;stroke-linecap:round;stroke-linejoin:round;stroke-miterlimit:4;stroke-dasharray:none"
           d="M 78.857869,45.188488 46.306226,76.950736 78.857869,108.7103 111.41224,76.950736 Z m 0.205999,7.337583 c 6.528037,11.07304 17.303829,19.769697 17.941713,28.329288 0.848018,11.380023 -13.911504,15.624559 -16.01899,2.360997 -0.135992,-0.936933 -1.268863,-1.356834 -1.181094,-0.04824 0.320222,3.634985 -0.135148,5.149197 4.067913,14.109706 H 72.886444 c 2.433277,-4.186931 3.883078,-9.327422 4.048702,-13.745239 0.01125,-1.526845 -1.225379,-1.556695 -1.211316,-0.442183 -0.103787,5.599272 -4.955997,8.356067 -8.481938,7.70205 -5.435669,-1.008228 -7.171405,-6.271235 -7.119554,-9.371632 0.160055,-9.56974 10.032278,-16.626724 18.94153,-28.89475 z"
           id="path6804"
           inkscape:connector-curvature="0" />
        <path
           style="display:inline;fill:#ffffff;fill-opacity:1;stroke:none;stroke-width:0.46627611;stroke-linecap:round;stroke-linejoin:round;stroke-miterlimit:4;stroke-dasharray:none"
           d="m 143.96388,45.188488 -32.55164,31.762248 32.55164,31.759564 32.55439,-31.759564 z m 7.19371,16.26435 c 0.22758,-3.88e-4 0.45492,0.01317 0.6812,0.04288 5.89153,0.07478 9.47221,6.471731 8.46546,11.885386 -1.2299,6.613428 -4.87945,10.595293 -7.64419,14.696605 -3.12779,4.246508 -7.33974,10.380229 -8.69618,13.332531 0,0 -4.27758,-6.353935 -9.84432,-13.825634 -3.72239,-4.996189 -6.70217,-10.408021 -6.97947,-15.069113 -0.31687,-5.3254 1.92353,-10.100542 8.12761,-10.925977 5.05392,-0.327441 7.68762,3.884284 8.20177,7.203588 0.30661,0.527262 0.47571,0.378435 0.59329,-0.02947 0.23167,-3.995174 3.68133,-7.304962 7.09483,-7.310784 z"
           id="path6806"
           inkscape:connector-curvature="0" />
        <path
           sodipodi:nodetypes="ccccc"
           inkscape:connector-curvature="0"
           id="path6808"
           d="m 91.817105,108.7104 c 8.628145,-8.21521 14.294705,-17.172409 19.713885,-25.786542 4.75239,9.47833 11.57231,17.770582 18.94772,25.786542 -7.89107,7.94969 -14.00684,16.45026 -18.92412,25.38672 -5.45101,-9.16066 -11.18974,-17.45604 -19.737485,-25.38672 z"
           style="fill:#ffffff;fill-opacity:1;stroke-width:0.25863227" />
        <path
           style="display:inline;fill:#ffffff;fill-opacity:1;stroke-width:0.74545258"
           d="m 105.86255,64.810895 c 2.17275,-4.25271 3.75525,-8.615765 4.03616,-13.281385 0.2578,-1.716883 -0.81099,-1.74567 -0.97212,-0.536482 -3.07642,11.481394 -19.442871,8.372353 -18.880169,-2.427308 0.456579,-8.758451 9.372877,-10.642704 14.023879,-7.778942 1.83662,1.05499 1.73284,0.423091 0.73047,-0.67136 -6.909043,-7.518968 -2.7245,-17.201894 6.61201,-17.379116 10.09744,0.584218 12.71744,10.949097 6.52369,17.044746 -0.77024,0.732365 -2.47803,3.086195 0.0928,1.44047 6.25397,-4.335489 14.93328,0.326083 14.75624,7.010395 -0.32656,12.325298 -15.72709,13.244531 -19.02064,2.949561 -0.31681,-1.141433 -1.22945,-1.71466 -0.97731,0.224038 0.45651,3.509794 1.40108,8.801632 4.10355,13.405383 z"
           id="path6810"
           inkscape:connector-curvature="0"
           sodipodi:nodetypes="cccscccccscscc" />
      </g>
      <g
         style="fill:#ffffff;fill-opacity:1"
         id="g6822"
         transform="translate(0,254.08724)">
        <path
           inkscape:connector-curvature="0"
           id="path6814"
           d="M 78.857869,45.188488 46.306226,76.950736 78.857869,108.7103 111.41224,76.950736 Z m 0.205999,7.337583 c 6.528037,11.07304 17.303829,19.769697 17.941713,28.329288 0.848018,11.380023 -13.911504,15.624559 -16.01899,2.360997 -0.135992,-0.936933 -1.268863,-1.356834 -1.181094,-0.04824 0.320222,3.634985 -0.135148,5.149197 4.067913,14.109706 H 72.886444 c 2.433277,-4.186931 3.883078,-9.327422 4.048702,-13.745239 0.01125,-1.526845 -1.225379,-1.556695 -1.211316,-0.442183 -0.103787,5.599272 -4.955997,8.356067 -8.481938,7.70205 -5.435669,-1.008228 -7.171405,-6.271235 -7.119554,-9.371632 0.160055,-9.56974 10.032278,-16.626724 18.94153,-28.89475 z"
           style="fill:#ffffff;fill-opacity:1;stroke:none;stroke-width:0.46627611;stroke-linecap:round;stroke-linejoin:round;stroke-miterlimit:4;stroke-dasharray:none" />
        <path
           inkscape:connector-curvature="0"
           id="path6816"
           d="m 143.96388,45.188488 -32.55164,31.762248 32.55164,31.759564 32.55439,-31.759564 z m 7.19371,16.26435 c 0.22758,-3.88e-4 0.45492,0.01317 0.6812,0.04288 5.89153,0.07478 9.47221,6.471731 8.46546,11.885386 -1.2299,6.613428 -4.87945,10.595293 -7.64419,14.696605 -3.12779,4.246508 -7.33974,10.380229 -8.69618,13.332531 0,0 -4.27758,-6.353935 -9.84432,-13.825634 -3.72239,-4.996189 -6.70217,-10.408021 -6.97947,-15.069113 -0.31687,-5.3254 1.92353,-10.100542 8.12761,-10.925977 5.05392,-0.327441 7.68762,3.884284 8.20177,7.203588 0.30661,0.527262 0.47571,0.378435 0.59329,-0.02947 0.23167,-3.995174 3.68133,-7.304962 7.09483,-7.310784 z"
           style="display:inline;fill:#ffffff;fill-opacity:1;stroke:none;stroke-width:0.46627611;stroke-linecap:round;stroke-linejoin:round;stroke-miterlimit:4;stroke-dasharray:none" />
        <path
           style="fill:#ffffff;fill-opacity:1;stroke-width:0.25863227"
           d="m 91.817105,108.7104 c 8.628145,-8.21521 14.294705,-17.172409 19.713885,-25.786542 4.75239,9.47833 11.57231,17.770582 18.94772,25.786542 -7.89107,7.94969 -14.00684,16.45026 -18.92412,25.38672 -5.45101,-9.16066 -11.18974,-17.45604 -19.737485,-25.38672 z"
           id="path6818"
           inkscape:connector-curvature="0"
           sodipodi:nodetypes="ccccc" />
        <path
           sodipodi:nodetypes="cccscccccscscc"
           inkscape:connector-curvature="0"
           id="path6820"
           d="m 105.86255,64.810895 c 2.17275,-4.25271 3.75525,-8.615765 4.03616,-13.281385 0.2578,-1.716883 -0.81099,-1.74567 -0.97212,-0.536482 -3.07642,11.481394 -19.442871,8.372353 -18.880169,-2.427308 0.456579,-8.758451 9.372877,-10.642704 14.023879,-7.778942 1.83662,1.05499 1.73284,0.423091 0.73047,-0.67136 -6.909043,-7.518968 -2.7245,-17.201894 6.61201,-17.379116 10.09744,0.584218 12.71744,10.949097 6.52369,17.044746 -0.77024,0.732365 -2.47803,3.086195 0.0928,1.44047 6.25397,-4.335489 14.93328,0.326083 14.75624,7.010395 -0.32656,12.325298 -15.72709,13.244531 -19.02064,2.949561 -0.31681,-1.141433 -1.22945,-1.71466 -0.97731,0.224038 0.45651,3.509794 1.40108,8.801632 4.10355,13.405383 z"
           style="display:inline;fill:#ffffff;fill-opacity:1;stroke-width:0.74545258" />
      </g>
      <g
         transform="translate(-130.21202)"
         id="g6832"
         style="fill:#ffffff;fill-opacity:1">
        <path
           style="fill:#ffffff;fill-opacity:1;stroke:none;stroke-width:0.46627611;stroke-linecap:round;stroke-linejoin:round;stroke-miterlimit:4;stroke-dasharray:none"
           d="M 78.857869,45.188488 46.306226,76.950736 78.857869,108.7103 111.41224,76.950736 Z m 0.205999,7.337583 c 6.528037,11.07304 17.303829,19.769697 17.941713,28.329288 0.848018,11.380023 -13.911504,15.624559 -16.01899,2.360997 -0.135992,-0.936933 -1.268863,-1.356834 -1.181094,-0.04824 0.320222,3.634985 -0.135148,5.149197 4.067913,14.109706 H 72.886444 c 2.433277,-4.186931 3.883078,-9.327422 4.048702,-13.745239 0.01125,-1.526845 -1.225379,-1.556695 -1.211316,-0.442183 -0.103787,5.599272 -4.955997,8.356067 -8.481938,7.70205 -5.435669,-1.008228 -7.171405,-6.271235 -7.119554,-9.371632 0.160055,-9.56974 10.032278,-16.626724 18.94153,-28.89475 z"
           id="path6824"
           inkscape:connector-curvature="0" />
        <path
           style="display:inline;fill:#ffffff;fill-opacity:1;stroke:none;stroke-width:0.46627611;stroke-linecap:round;stroke-linejoin:round;stroke-miterlimit:4;stroke-dasharray:none"
           d="m 143.96388,45.188488 -32.55164,31.762248 32.55164,31.759564 32.55439,-31.759564 z m 7.19371,16.26435 c 0.22758,-3.88e-4 0.45492,0.01317 0.6812,0.04288 5.89153,0.07478 9.47221,6.471731 8.46546,11.885386 -1.2299,6.613428 -4.87945,10.595293 -7.64419,14.696605 -3.12779,4.246508 -7.33974,10.380229 -8.69618,13.332531 0,0 -4.27758,-6.353935 -9.84432,-13.825634 -3.72239,-4.996189 -6.70217,-10.408021 -6.97947,-15.069113 -0.31687,-5.3254 1.92353,-10.100542 8.12761,-10.925977 5.05392,-0.327441 7.68762,3.884284 8.20177,7.203588 0.30661,0.527262 0.47571,0.378435 0.59329,-0.02947 0.23167,-3.995174 3.68133,-7.304962 7.09483,-7.310784 z"
           id="path6826"
           inkscape:connector-curvature="0" />
        <path
           sodipodi:nodetypes="ccccc"
           inkscape:connector-curvature="0"
           id="path6828"
           d="m 91.817105,108.7104 c 8.628145,-8.21521 14.294705,-17.172409 19.713885,-25.786542 4.75239,9.47833 11.57231,17.770582 18.94772,25.786542 -7.89107,7.94969 -14.00684,16.45026 -18.92412,25.38672 -5.45101,-9.16066 -11.18974,-17.45604 -19.737485,-25.38672 z"
           style="fill:#ffffff;fill-opacity:1;stroke-width:0.25863227" />
        <path
           style="display:inline;fill:#ffffff;fill-opacity:1;stroke-width:0.74545258"
           d="m 105.86255,64.810895 c 2.17275,-4.25271 3.75525,-8.615765 4.03616,-13.281385 0.2578,-1.716883 -0.81099,-1.74567 -0.97212,-0.536482 -3.07642,11.481394 -19.442871,8.372353 -18.880169,-2.427308 0.456579,-8.758451 9.372877,-10.642704 14.023879,-7.778942 1.83662,1.05499 1.73284,0.423091 0.73047,-0.67136 -6.909043,-7.518968 -2.7245,-17.201894 6.61201,-17.379116 10.09744,0.584218 12.71744,10.949097 6.52369,17.044746 -0.77024,0.732365 -2.47803,3.086195 0.0928,1.44047 6.25397,-4.335489 14.93328,0.326083 14.75624,7.010395 -0.32656,12.325298 -15.72709,13.244531 -19.02064,2.949561 -0.31681,-1.141433 -1.22945,-1.71466 -0.97731,0.224038 0.45651,3.509794 1.40108,8.801632 4.10355,13.405383 z"
           id="path6830"
           inkscape:connector-curvature="0"
           sodipodi:nodetypes="cccscccccscscc" />
      </g>
      <g
         style="fill:#ffffff;fill-opacity:1"
         id="g6842"
         transform="translate(-65.106011,-63.521812)">
        <path
           inkscape:connector-curvature="0"
           id="path6834"
           d="M 78.857869,45.188488 46.306226,76.950736 78.857869,108.7103 111.41224,76.950736 Z m 0.205999,7.337583 c 6.528037,11.07304 17.303829,19.769697 17.941713,28.329288 0.848018,11.380023 -13.911504,15.624559 -16.01899,2.360997 -0.135992,-0.936933 -1.268863,-1.356834 -1.181094,-0.04824 0.320222,3.634985 -0.135148,5.149197 4.067913,14.109706 H 72.886444 c 2.433277,-4.186931 3.883078,-9.327422 4.048702,-13.745239 0.01125,-1.526845 -1.225379,-1.556695 -1.211316,-0.442183 -0.103787,5.599272 -4.955997,8.356067 -8.481938,7.70205 -5.435669,-1.008228 -7.171405,-6.271235 -7.119554,-9.371632 0.160055,-9.56974 10.032278,-16.626724 18.94153,-28.89475 z"
           style="fill:#ffffff;fill-opacity:1;stroke:none;stroke-width:0.46627611;stroke-linecap:round;stroke-linejoin:round;stroke-miterlimit:4;stroke-dasharray:none" />
        <path
           inkscape:connector-curvature="0"
           id="path6836"
           d="m 143.96388,45.188488 -32.55164,31.762248 32.55164,31.759564 32.55439,-31.759564 z m 7.19371,16.26435 c 0.22758,-3.88e-4 0.45492,0.01317 0.6812,0.04288 5.89153,0.07478 9.47221,6.471731 8.46546,11.885386 -1.2299,6.613428 -4.87945,10.595293 -7.64419,14.696605 -3.12779,4.246508 -7.33974,10.380229 -8.69618,13.332531 0,0 -4.27758,-6.353935 -9.84432,-13.825634 -3.72239,-4.996189 -6.70217,-10.408021 -6.97947,-15.069113 -0.31687,-5.3254 1.92353,-10.100542 8.12761,-10.925977 5.05392,-0.327441 7.68762,3.884284 8.20177,7.203588 0.30661,0.527262 0.47571,0.378435 0.59329,-0.02947 0.23167,-3.995174 3.68133,-7.304962 7.09483,-7.310784 z"
           style="display:inline;fill:#ffffff;fill-opacity:1;stroke:none;stroke-width:0.46627611;stroke-linecap:round;stroke-linejoin:round;stroke-miterlimit:4;stroke-dasharray:none" />
        <path
           style="fill:#ffffff;fill-opacity:1;stroke-width:0.25863227"
           d="m 91.817105,108.7104 c 8.628145,-8.21521 14.294705,-17.172409 19.713885,-25.786542 4.75239,9.47833 11.57231,17.770582 18.94772,25.786542 -7.89107,7.94969 -14.00684,16.45026 -18.92412,25.38672 -5.45101,-9.16066 -11.18974,-17.45604 -19.737485,-25.38672 z"
           id="path6838"
           inkscape:connector-curvature="0"
           sodipodi:nodetypes="ccccc" />
        <path
           sodipodi:nodetypes="cccscccccscscc"
           inkscape:connector-curvature="0"
           id="path6840"
           d="m 105.86255,64.810895 c 2.17275,-4.25271 3.75525,-8.615765 4.03616,-13.281385 0.2578,-1.716883 -0.81099,-1.74567 -0.97212,-0.536482 -3.07642,11.481394 -19.442871,8.372353 -18.880169,-2.427308 0.456579,-8.758451 9.372877,-10.642704 14.023879,-7.778942 1.83662,1.05499 1.73284,0.423091 0.73047,-0.67136 -6.909043,-7.518968 -2.7245,-17.201894 6.61201,-17.379116 10.09744,0.584218 12.71744,10.949097 6.52369,17.044746 -0.77024,0.732365 -2.47803,3.086195 0.0928,1.44047 6.25397,-4.335489 14.93328,0.326083 14.75624,7.010395 -0.32656,12.325298 -15.72709,13.244531 -19.02064,2.949561 -0.31681,-1.141433 -1.22945,-1.71466 -0.97731,0.224038 0.45651,3.509794 1.40108,8.801632 4.10355,13.405383 z"
           style="display:inline;fill:#ffffff;fill-opacity:1;stroke-width:0.74545258" />
      </g>
      <g
         transform="translate(65.106011,-63.521812)"
         id="g6852"
         style="fill:#ffffff;fill-opacity:1">
        <path
           style="fill:#ffffff;fill-opacity:1;stroke:none;stroke-width:0.46627611;stroke-linecap:round;stroke-linejoin:round;stroke-miterlimit:4;stroke-dasharray:none"
           d="M 78.857869,45.188488 46.306226,76.950736 78.857869,108.7103 111.41224,76.950736 Z m 0.205999,7.337583 c 6.528037,11.07304 17.303829,19.769697 17.941713,28.329288 0.848018,11.380023 -13.911504,15.624559 -16.01899,2.360997 -0.135992,-0.936933 -1.268863,-1.356834 -1.181094,-0.04824 0.320222,3.634985 -0.135148,5.149197 4.067913,14.109706 H 72.886444 c 2.433277,-4.186931 3.883078,-9.327422 4.048702,-13.745239 0.01125,-1.526845 -1.225379,-1.556695 -1.211316,-0.442183 -0.103787,5.599272 -4.955997,8.356067 -8.481938,7.70205 -5.435669,-1.008228 -7.171405,-6.271235 -7.119554,-9.371632 0.160055,-9.56974 10.032278,-16.626724 18.94153,-28.89475 z"
           id="path6844"
           inkscape:connector-curvature="0" />
        <path
           style="display:inline;fill:#ffffff;fill-opacity:1;stroke:none;stroke-width:0.46627611;stroke-linecap:round;stroke-linejoin:round;stroke-miterlimit:4;stroke-dasharray:none"
           d="m 143.96388,45.188488 -32.55164,31.762248 32.55164,31.759564 32.55439,-31.759564 z m 7.19371,16.26435 c 0.22758,-3.88e-4 0.45492,0.01317 0.6812,0.04288 5.89153,0.07478 9.47221,6.471731 8.46546,11.885386 -1.2299,6.613428 -4.87945,10.595293 -7.64419,14.696605 -3.12779,4.246508 -7.33974,10.380229 -8.69618,13.332531 0,0 -4.27758,-6.353935 -9.84432,-13.825634 -3.72239,-4.996189 -6.70217,-10.408021 -6.97947,-15.069113 -0.31687,-5.3254 1.92353,-10.100542 8.12761,-10.925977 5.05392,-0.327441 7.68762,3.884284 8.20177,7.203588 0.30661,0.527262 0.47571,0.378435 0.59329,-0.02947 0.23167,-3.995174 3.68133,-7.304962 7.09483,-7.310784 z"
           id="path6846"
           inkscape:connector-curvature="0" />
        <path
           sodipodi:nodetypes="ccccc"
           inkscape:connector-curvature="0"
           id="path6848"
           d="m 91.817105,108.7104 c 8.628145,-8.21521 14.294705,-17.172409 19.713885,-25.786542 4.75239,9.47833 11.57231,17.770582 18.94772,25.786542 -7.89107,7.94969 -14.00684,16.45026 -18.92412,25.38672 -5.45101,-9.16066 -11.18974,-17.45604 -19.737485,-25.38672 z"
           style="fill:#ffffff;fill-opacity:1;stroke-width:0.25863227" />
        <path
           style="display:inline;fill:#ffffff;fill-opacity:1;stroke-width:0.74545258"
           d="m 105.86255,64.810895 c 2.17275,-4.25271 3.75525,-8.615765 4.03616,-13.281385 0.2578,-1.716883 -0.81099,-1.74567 -0.97212,-0.536482 -3.07642,11.481394 -19.442871,8.372353 -18.880169,-2.427308 0.456579,-8.758451 9.372877,-10.642704 14.023879,-7.778942 1.83662,1.05499 1.73284,0.423091 0.73047,-0.67136 -6.909043,-7.518968 -2.7245,-17.201894 6.61201,-17.379116 10.09744,0.584218 12.71744,10.949097 6.52369,17.044746 -0.77024,0.732365 -2.47803,3.086195 0.0928,1.44047 6.25397,-4.335489 14.93328,0.326083 14.75624,7.010395 -0.32656,12.325298 -15.72709,13.244531 -19.02064,2.949561 -0.31681,-1.141433 -1.22945,-1.71466 -0.97731,0.224038 0.45651,3.509794 1.40108,8.801632 4.10355,13.405383 z"
           id="path6850"
           inkscape:connector-curvature="0"
           sodipodi:nodetypes="cccscccccscscc" />
      </g>
      <g
         style="fill:#ffffff;fill-opacity:1"
         id="g6862"
         transform="translate(130.21202)">
        <path
           inkscape:connector-curvature="0"
           id="path6854"
           d="M 78.857869,45.188488 46.306226,76.950736 78.857869,108.7103 111.41224,76.950736 Z m 0.205999,7.337583 c 6.528037,11.07304 17.303829,19.769697 17.941713,28.329288 0.848018,11.380023 -13.911504,15.624559 -16.01899,2.360997 -0.135992,-0.936933 -1.268863,-1.356834 -1.181094,-0.04824 0.320222,3.634985 -0.135148,5.149197 4.067913,14.109706 H 72.886444 c 2.433277,-4.186931 3.883078,-9.327422 4.048702,-13.745239 0.01125,-1.526845 -1.225379,-1.556695 -1.211316,-0.442183 -0.103787,5.599272 -4.955997,8.356067 -8.481938,7.70205 -5.435669,-1.008228 -7.171405,-6.271235 -7.119554,-9.371632 0.160055,-9.56974 10.032278,-16.626724 18.94153,-28.89475 z"
           style="fill:#ffffff;fill-opacity:1;stroke:none;stroke-width:0.46627611;stroke-linecap:round;stroke-linejoin:round;stroke-miterlimit:4;stroke-dasharray:none" />
        <path
           inkscape:connector-curvature="0"
           id="path6856"
           d="m 143.96388,45.188488 -32.55164,31.762248 32.55164,31.759564 32.55439,-31.759564 z m 7.19371,16.26435 c 0.22758,-3.88e-4 0.45492,0.01317 0.6812,0.04288 5.89153,0.07478 9.47221,6.471731 8.46546,11.885386 -1.2299,6.613428 -4.87945,10.595293 -7.64419,14.696605 -3.12779,4.246508 -7.33974,10.380229 -8.69618,13.332531 0,0 -4.27758,-6.353935 -9.84432,-13.825634 -3.72239,-4.996189 -6.70217,-10.408021 -6.97947,-15.069113 -0.31687,-5.3254 1.92353,-10.100542 8.12761,-10.925977 5.05392,-0.327441 7.68762,3.884284 8.20177,7.203588 0.30661,0.527262 0.47571,0.378435 0.59329,-0.02947 0.23167,-3.995174 3.68133,-7.304962 7.09483,-7.310784 z"
           style="display:inline;fill:#ffffff;fill-opacity:1;stroke:none;stroke-width:0.46627611;stroke-linecap:round;stroke-linejoin:round;stroke-miterlimit:4;stroke-dasharray:none" />
        <path
           style="fill:#ffffff;fill-opacity:1;stroke-width:0.25863227"
           d="m 91.817105,108.7104 c 8.628145,-8.21521 14.294705,-17.172409 19.713885,-25.786542 4.75239,9.47833 11.57231,17.770582 18.94772,25.786542 -7.89107,7.94969 -14.00684,16.45026 -18.92412,25.38672 -5.45101,-9.16066 -11.18974,-17.45604 -19.737485,-25.38672 z"
           id="path6858"
           inkscape:connector-curvature="0"
           sodipodi:nodetypes="ccccc" />
        <path
           sodipodi:nodetypes="cccscccccscscc"
           inkscape:connector-curvature="0"
           id="path6860"
           d="m 105.86255,64.810895 c 2.17275,-4.25271 3.75525,-8.615765 4.03616,-13.281385 0.2578,-1.716883 -0.81099,-1.74567 -0.97212,-0.536482 -3.07642,11.481394 -19.442871,8.372353 -18.880169,-2.427308 0.456579,-8.758451 9.372877,-10.642704 14.023879,-7.778942 1.83662,1.05499 1.73284,0.423091 0.73047,-0.67136 -6.909043,-7.518968 -2.7245,-17.201894 6.61201,-17.379116 10.09744,0.584218 12.71744,10.949097 6.52369,17.044746 -0.77024,0.732365 -2.47803,3.086195 0.0928,1.44047 6.25397,-4.335489 14.93328,0.326083 14.75624,7.010395 -0.32656,12.325298 -15.72709,13.244531 -19.02064,2.949561 -0.31681,-1.141433 -1.22945,-1.71466 -0.97731,0.224038 0.45651,3.509794 1.40108,8.801632 4.10355,13.405383 z"
           style="display:inline;fill:#ffffff;fill-opacity:1;stroke-width:0.74545258" />
      </g>
    </g>
  </g>
  <g
     inkscape:groupmode="layer"
     id="layer4"
     inkscape:label="B"
     style="display:inline;opacity:1">
    <g
       aria-label="B"
       style="font-style:normal;font-variant:normal;font-weight:normal;font-stretch:normal;font-size:228.40571594px;line-height:1.25;font-family:'Poker Kings';-inkscape-font-specification:'Poker Kings';letter-spacing:0px;word-spacing:0px;display:inline;opacity:1;fill:#860c0c;fill-opacity:0.7764706;stroke:#ffffff;stroke-width:5.71001053;stroke-miterlimit:4;stroke-dasharray:none;stroke-opacity:0.97087378;paint-order:markers stroke fill"
       id="text120">
      <path
         d="M 119.01425,84.083177 H 82.92615 V 145.0675 h 36.0881 q 6.85217,0 13.01913,-1.82724 6.16695,-1.82725 10.73507,-5.48174 4.79652,-3.8829 7.53739,-9.36463 2.96927,-5.48174 2.96927,-12.79072 0,-9.59304 -2.05565,-15.53159 -2.05565,-6.166957 -6.39536,-9.593043 -4.33971,-3.654491 -10.73507,-5.024926 -6.39536,-1.370434 -15.07478,-1.370434 z M 82.92615,230.49124 h 41.79825 q 10.96347,0 18.27245,-1.82724 7.30899,-2.05566 11.6487,-6.62377 4.3397,-4.56811 6.16695,-11.8771 1.82725,-7.53739 1.82725,-18.27246 0,-8.90782 -3.6545,-14.16115 -3.42608,-5.25333 -9.13623,-7.9942 -5.48173,-2.74087 -12.56231,-3.42609 -7.08058,-0.91362 -14.16115,-0.91362 H 82.92615 Z m 69.66374,-87.02258 q 6.62377,-4.56811 11.42029,-11.87709 4.79652,-7.30899 4.79652,-15.30319 0,-9.36463 -5.93855,-16.90202 -5.71014,-7.537389 -12.56231,-13.019126 5.93855,6.166954 10.04985,13.932746 4.1113,7.7658 4.1113,16.44521 0,7.08058 -3.19768,14.61797 -3.19768,7.30898 -8.67942,12.1055 z m 8.45102,82.91128 q 3.65449,-2.05565 7.08057,-5.25333 3.65449,-3.19768 6.39536,-7.08058 2.74087,-3.8829 4.33971,-7.9942 1.82725,-4.33971 1.82725,-8.90782 0,-4.79652 -1.82725,-8.90783 -1.59884,-4.33971 -4.33971,-7.9942 -2.74087,-3.88289 -6.39536,-7.08057 -3.42608,-3.42609 -6.85217,-6.16696 6.39536,5.25333 10.27826,13.01913 4.1113,7.53739 4.1113,15.75999 0,8.90782 -4.33971,16.67362 -4.33971,7.76579 -10.27825,13.93275 z m -90.677074,-3.19768 q 0,-16.90203 1.370434,-33.80405 1.59884,-16.90202 4.568114,-33.34723 -0.456811,0 -0.913622,-1.82725 -0.456812,-1.82724 -0.913623,-4.1113 -0.456812,-2.28406 -0.913623,-4.33971 -0.228406,-2.05565 -0.228406,-2.51246 -1.370434,-11.42029 -2.055651,-22.84057 -0.456812,-11.42029 -0.913623,-23.068982 -0.228406,11.648692 -0.685217,23.068982 -0.456812,11.42028 -1.827246,22.84057 0,0.45681 -0.456811,2.51246 -0.228406,2.05565 -0.685218,4.33971 -0.456811,2.28406 -1.142028,4.1113 -0.456812,1.82725 -1.142029,1.82725 2.969275,16.44521 4.339709,33.34723 1.59884,16.90202 1.59884,33.80405 z M 119.01425,70.378834 q 10.96348,0 21.47014,1.827246 10.50666,1.827245 18.72927,6.623765 8.45101,4.568115 13.47594,12.790721 5.25333,8.222605 5.25333,21.241734 0,13.70434 -6.85217,23.9826 -6.85217,10.27825 -20.09971,14.84637 16.44522,3.19768 26.49507,14.16115 10.04985,10.73507 10.04985,27.8655 0,13.47594 -5.25333,22.84057 -5.02493,9.36464 -13.70435,15.30319 -8.45101,5.71014 -19.64289,8.45101 -11.19188,2.51246 -23.06898,2.51246 H 84.068179 l -2.512463,-2.05565 -2.512463,2.05565 h -35.17448 l 14.38956,-11.42029 v -61.21273 q 0,-1.82724 -2.512463,-4.1113 -2.512463,-2.28406 -5.710143,-4.33971 -3.19768,-2.28406 -6.623766,-4.1113 -3.19768,-1.82725 -4.568114,-2.51247 1.59884,-0.91362 4.79652,-2.74086 3.19768,-1.82725 6.39536,-4.11131 3.19768,-2.28405 5.710143,-4.56811 2.512463,-2.51246 2.512463,-4.33971 V 87.052451 L 44.782396,70.378834 h 33.804046 l 2.512462,1.827246 2.284058,-1.827246 z"
         style="fill:#860c0c;fill-opacity:0.7764706;stroke:#ffffff;stroke-width:5.71001053;stroke-miterlimit:4;stroke-dasharray:none;stroke-opacity:0.97087378;paint-order:markers stroke fill"
         id="path7113"
         inkscape:connector-curvature="0" />
    </g>
  </g>
</svg>
